<svg xmlns="http://www.w3.org/2000/svg" width="1106" height="1034" viewBox="0 0 1106 1034">
    <g fill="none" fill-rule="evenodd">
        <g>
            <g>
                <path fill="#AFB1B4" d="M468 823.04L468 836 1106 503.956 1106 491zM1106 458v12.956L468 803v-12.566L0 1034v-12.96L638 689v12.565L1106 458zM1106 421v12.956L468 766v-12.566L0 997v-12.96L638 652v12.565L1106 421zM1106 386v12.956L468 731v-12.566L0 962v-12.96L638 617v12.568L1106 386zM1106 350v12.96L468 695v-10.566L0 928v-12.96L638 583v10.568L1106 350zM1106 317v12.96L468 662v-12.562L0 893v-12.96L638 548v12.568L1106 317zM1106 282v12.96L468 627v-12.569L0 858v-12.96L638 513v12.565L1106 282zM1106 247v12.96L468 592v-12.569L0 823v-12.96L638 478v12.568L1106 247zM1106 212v12.96L468 557v-12.569L0 788v-12.956L638 443v12.568L1106 212zM1106 176v12.96L468 521v-12.569L0 752v-12.956L638 407v12.565L1106 176z" transform="translate(-471.000000, 69.000000) translate(471.000000, -69.000000)"/>
                <path fill="#00ACD8" d="M468 473.04L468 486 1106 153.96 1106 141zM468 438.04L468 451 1106 118.96 1106 106z" transform="translate(-471.000000, 69.000000) translate(471.000000, -69.000000)"/>
                <path fill="#AFB1B4" d="M468 403.04L468 416 1106 83.96 1106 71zM468 368.04L468 381 1106 48.964 1106 36zM1106 0L468 332.036 468 345 1106 12.96zM468 962.04L468 975 1106 642.956 1106 630zM468 927.045L468 940 1106 607.96 1106 595zM468 894.044L468 907 1106 574.956 1106 562zM468 859.04L468 872 1106 539.955 1106 527z" transform="translate(-471.000000, 69.000000) translate(471.000000, -69.000000)"/>
            </g>
        </g>
    </g>
</svg>
