<svg xmlns="http://www.w3.org/2000/svg" width="984" height="910" viewBox="0 0 984 910">
    <g fill="none" fill-rule="evenodd">
        <g>
            <g>
                <g>
                    <g>
                        <path fill="#FEFEFE" fill-opacity=".5" d="M983.571 418.269v11.008L416.716 711.4l-.001-10.146L0 909.012v-11.03L566.856 615.37l-.001 10.295 416.716-207.396zM983.571 388.65v11.007L416.716 681.78l-.001-10.145L0 879.393v-11.031L566.856 585.75l-.001 10.295L983.571 388.65zM983.571 359.03v11.008L416.716 652.16l-.001-10.146L0 849.773v-11.03l566.856-282.611-.001 10.294L983.571 359.03zM983.571 328.39v11.007L416.716 621.52l-.001-10.146L0 819.132v-11.03L566.856 525.49l-.001 10.297L983.571 328.39zM983.571 298.259v11.03L416.716 591.902l-.001-10.146L0 789.513v-11.03L566.856 495.87l-.001 10.148 416.716-207.76zM983.571 268.64v11.011l-566.855 282.12-.001-10.143L0 759.383v-11.03L566.856 465.74l-.001 10.298 416.716-207.4zM983.571 239.02v11.03L416.716 532.663l-.001-10.299L0 729.763v-11.012l566.856-282.119-.001 10.145L983.571 239.02zM983.571 210.4v11.012l-566.855 282.12-.001-10.788L0 700.144v-11.012l566.856-282.12-.001 10.788 416.716-207.4zM983.571 180.781v11.012L416.716 473.912l-.001-10.788L0 670.524v-11.008l566.856-282.123-.001 10.787 416.716-207.399zM983.571 149.63v11.03L416.716 443.271l-.001-10.787L0 639.884v-11.009l566.856-282.123-.001 10.635L983.571 149.63z" transform="translate(-817.000000, -132.000000) translate(426.000000, -0.164435) translate(-9.810414, -5.835565) translate(400.884513, 138.394526)"/>
                        <path fill="#00ACD8" d="M416.716 401.6L416.716 412.63 983.571 130.019 983.571 118.989zM416.716 371.98L416.716 383.011 983.571 100.4 983.571 89.369z" transform="translate(-817.000000, -132.000000) translate(426.000000, -0.164435) translate(-9.810414, -5.835565) translate(400.884513, 138.394526)"/>
                        <path fill="#FEFEFE" fill-opacity=".5" d="M416.716 342.871L416.716 353.902 983.571 71.291 983.571 60.26zM416.716 312.231L416.716 323.261 983.571 40.654 983.571 29.619zM983.571 0L416.716 282.607 416.716 293.642 983.571 11.03zM416.716 730.989L416.716 742.019 983.571 459.405 983.571 448.378z" transform="translate(-817.000000, -132.000000) translate(426.000000, -0.164435) translate(-9.810414, -5.835565) translate(400.884513, 138.394526)"/>
                    </g>
                </g>
            </g>
        </g>
    </g>
</svg>
