<svg xmlns="http://www.w3.org/2000/svg" xmlns:xlink="http://www.w3.org/1999/xlink" width="282" height="60" viewBox="0 0 282 60">
    <defs>
        <path id="czpiqrb1ya" d="M0 0L281.008 0 281.008 60 0 60z"/>
    </defs>
    <g fill="none" fill-rule="evenodd">
        <g>
            <g>
                <g transform="translate(-120.000000, -301.000000) translate(0.000000, 261.000000) translate(120.000000, 40.000000)">
                    <mask id="0nq6bi3yyb" fill="#fff">
                        <use xlink:href="#czpiqrb1ya"/>
                    </mask>
                    <path fill="#FFF" d="M11.81 46.359L0 40.472V0l39.283 19.578L78.566 0v13.48L39.283 33.058 11.81 19.366V46.36zM39.284 60.05l39.283-19.578v-13.48L39.283 46.57v13.48zm77.442-34.59v-.001l-9.538 4.754-9.538-4.754h-.003V40.47h2.815V30.23l6.693 3.284.033-.017.032.017 6.693-3.284V40.47h2.815V25.46h-.002zm58.448 0v-.001l-9.537 4.754-9.538-4.754h-.003V40.47h2.815V30.23l6.693 3.284.033-.017.032.017 6.693-3.284V40.47h2.815V25.46h-.003zm95.941 2.333l-3.34 6.36h6.66l-3.32-6.36zm4.647 8.867h-9.294l-1.992 3.811h-3.277l7.881-15.012h4.07l7.86 15.012h-3.256l-1.992-3.811zm-18.466-11.201v2.527h-7.282V40.47h-2.87V27.986h-7.28v-2.527h17.432zm-26.29 15.012h-3.32l-11.136-11.286v11.286h-2.87V25.46h3.47l10.964 11.287V25.459h2.892V40.47zm-27.234-12.485h-14.563v3.748h10.387v2.505h-10.387v3.728h14.563v2.504h-17.433V25.46h17.433v2.527zm-70.24.17c-2.656.108-4.648 2.186-4.648 4.82 0 2.677 2.142 4.797 4.883 4.797h5.269c2.762 0 4.904-2.12 4.904-4.797 0-2.634-1.992-4.712-4.647-4.82h-5.762zm-.579-2.676h6.896c3.748.236 6.79 3.598 6.79 7.496 0 3.94-3.234 7.431-7.068 7.495h-6.317c-3.834-.064-7.069-3.554-7.069-7.495 0-3.898 3.064-7.26 6.768-7.496z" mask="url(#0nq6bi3yyb)"/>
                </g>
            </g>
        </g>
    </g>
</svg>
